<svg viewBox="0 0 1200 600" xmlns="http://www.w3.org/2000/svg">
  <!-- Simplified world map paths -->
  <g id="world-map" fill="#e5e7eb" stroke="#9ca3af" strokeWidth="0.5">
    <!-- North America -->
    <path d="M 150 180 Q 200 160 250 170 L 280 190 L 300 220 L 290 250 L 270 280 L 250 300 L 220 320 L 180 310 L 150 290 L 130 260 L 120 230 L 130 200 Z"/>
    
    <!-- South America -->
    <path d="M 230 350 L 250 360 L 260 380 L 270 410 L 265 440 L 255 470 L 240 490 L 220 485 L 210 460 L 205 430 L 210 400 L 220 370 Z"/>
    
    <!-- Europe -->
    <path d="M 560 160 L 580 155 L 600 160 L 620 165 L 635 170 L 640 180 L 635 195 L 625 205 L 610 210 L 590 205 L 570 200 L 555 190 L 550 175 L 555 165 Z"/>
    
    <!-- Africa -->
    <path d="M 580 250 L 600 240 L 620 245 L 630 260 L 635 280 L 640 310 L 635 340 L 625 370 L 610 390 L 590 395 L 570 385 L 560 360 L 555 330 L 560 300 L 565 270 L 570 255 Z"/>
    
    <!-- Asia -->
    <path d="M 680 140 L 750 130 L 820 140 L 880 160 L 920 180 L 940 210 L 930 240 L 900 260 L 850 270 L 800 265 L 750 255 L 700 245 L 670 230 L 660 210 L 665 190 L 670 170 L 675 150 Z"/>
    
    <!-- Australia -->
    <path d="M 850 420 L 890 415 L 920 425 L 935 440 L 930 460 L 915 475 L 890 480 L 860 475 L 845 460 L 840 440 L 845 425 Z"/>
    
    <!-- India -->
    <path d="M 760 280 L 780 275 L 795 285 L 800 300 L 795 320 L 785 335 L 770 340 L 755 335 L 750 320 L 752 300 L 755 285 Z"/>
    
    <!-- Japan -->
    <path d="M 950 220 L 965 215 L 975 225 L 970 240 L 960 245 L 950 240 L 945 230 Z"/>
    
    <!-- UK -->
    <path d="M 540 175 L 545 172 L 548 177 L 545 182 L 540 180 Z"/>
    
    <!-- Greenland -->
    <path d="M 380 80 L 420 70 L 450 85 L 445 110 L 420 125 L 390 120 L 375 100 L 375 85 Z"/>
  </g>
</svg>