<?xml version="1.0" encoding="UTF-8"?>
<!DOCTYPE svg PUBLIC "-//W3C//DTD SVG 1.1//EN"
  "http://www.w3.org/Graphics/SVG/1.1/DTD/svg11.dtd">
<!-- Created with Inkpad (http://www.taptrix.com/) --><svg xmlns:inkpad="http://taptrix.com/inkpad/svg_extensions" height="289pt" xmlns:xlink="http://www.w3.org/1999/xlink" xmlns="http://www.w3.org/2000/svg" width="289pt" version="1.1" viewBox="0,0,289,289">
<defs/>
<g id="Untitled" inkpad:layerName="Untitled">
<g opacity="1">
<path d="M114.3+25.4C108.4+28.2+103.6+33.9+101.9+40.4C100.4+45.9+101.3+55.6+103.8+61.3L105.9+66L102.5+71C95.2+81.8+95+93.8+101.9+104L104.8+108.4L100.5+111.1C91.8+116.6+86.9+127.3+88.4+137.4C88.8+139.9+89.1+142.3+89.1+142.7C89.1+143.1+86.1+144+82.5+144.7C69.9+147+58.2+154.3+47.6+166.7C32.9+183.7+26+201.3+28.9+214.4C30.5+221.4+36.2+228.1+42.8+230.7C48.7+232.9+59.5+232.9+67.6+230.5C73.9+228.7+84.5+223.7+87.3+221.2C92.2+216.9+88.9+222.5+77.6+237.8C67.8+251+65+255.5+65+257.9C65+260.3+65.6+261.3+67.4+262.2C68.8+262.8+70.5+263+71.4+262.7C72.2+262.4+79.4+252.9+87.4+241.6C102.2+220.9+103.1+219+101+213.6C100.2+211.4+100.6+210.4+104.3+206.1C106.6+203.4+109.8+198.6+111.4+195.5L114.3+189.7L121.7+197.2L129+204.8L126.1+211.1C124.6+214.6+119.1+226.2+114.1+236.9C104.2+257.8+103.5+260.8+108.2+262.4C110.3+263.2+111.4+263+112.8+261.6C115.4+259.3+140.3+206.4+140.3+203.2C140.3+201.4+137.2+197.7+128.6+189.1L117+177.5L117+172.5C117+169.7+116.6+166+116.1+164.3C115.6+162.5+115.5+160.8+115.9+160.6C116.3+160.3+125.3+168.7+135.8+179.3L155+198.5L152+225.5C150.3+240.3+149+254.1+149+256.2C149+262.1+151.2+263+165.2+263C177.9+263+180+262.2+180+257.5C180+253.6+176.5+252+167.8+252L160+252L160+249.2C160+247.7+161.1+236.4+162.5+224C166.2+190.6+168.2+196.7+146.4+174.9L127.8+156.2L131.8+152C134.1+149.7+136.2+147+136.5+145.9C137.4+143.3+138+143.4+145.4+148.2C151.6+152.1+152+152.7+155.1+160.1C160.8+174.4+171+188.7+180.4+195.9C188.4+201.9+201.2+209+204+209C212.4+209+233.3+194.1+242.9+181.2C258+161.1+263.9+138.8+264.7+99.3L265.2+75.1L262.9+74.1C261.6+73.6+256.4+72.7+251.4+72.1C237.2+70.4+225.8+66+211.7+56.7C207.3+53.8+204.2+52.4+203.2+52.8C202.2+53.1+198.6+55.3+195.1+57.8C187+63.3+181.2+66.2+173+68.8C163.7+71.8+162.7+71.8+158.9+68.9C153.8+65.1+149+62.5+143.8+60.5C139.4+58.9+139+58.4+139+55.5C139+51+141.4+43.7+144+39.9C145.4+38.1+148.5+35.8+151.7+34.4C157.5+31.8+158.6+30.4+157.6+26.6C156.8+23.2+153.8+22.6+148.1+24.5C138+27.8+131.2+36.9+128.8+50.4L127.5+57.3L121.6+58.7C114.5+60.3+113.6+59.8+112+53.1C109.8+43.7+114.1+35.5+122.3+33.5C124.9+32.8+127+30.4+127+28.1C127+26.4+123.2+23+121.3+23C120.3+23+117.2+24.1+114.3+25.4ZM209.2+67.4C221.8+75.4+237+81.2+249+82.6L255.3+83.3L254.7+100.9C253.6+130+250.1+147+241.6+163.9C235.2+176.6+223.8+188.1+210.8+195L205+198.1L197.8+194.3C186.1+188.1+175.7+177.4+168.1+163.8L164.9+158.2L175.2+149.9C193.6+135.2+195.5+132.6+191+128.5C188.3+126.1+187+126.8+173.8+137.3C165.1+144.2+162.8+145.6+161.6+144.7C160.5+143.7+156+124.5+156+120.4C156+119.9+157.7+118.6+159.7+117.5C172.5+110.7+177.1+99.1+172.1+86C171+83.3+170.5+80.8+170.8+80.6C171.2+80.4+174+79.5+177+78.5C184.1+76.2+194.4+71+199.5+67.2C201.7+65.5+203.6+64.1+203.7+64.1C203.9+64+206.3+65.5+209.2+67.4ZM143.5+71.8C155.8+77.6+165.1+89.5+163.6+97.5C161.1+110.6+138.8+115+120.4+106C111.9+101.9+108.7+97.4+108.2+89.5C107.1+71.8+124.7+63+143.5+71.8ZM121+119.2C127.2+122.4+129.4+125.9+129.4+132.3C129.4+141.1+123.7+147.9+115+149.5C110.3+150.3+103.4+146.7+100.9+142C97.3+135.4+98.8+126.4+104.2+121.3C109.2+116.6+114.5+115.9+121+119.2ZM146.7+128.9C147.5+132.9+147.9+136.5+147.6+136.8C147.3+137+145.5+136.1+143.5+134.6C141.2+132.8+140+131.1+140+129.5C140+128.2+139.6+126+139+124.6C138.2+122.5+138.4+122.1+140.3+121.7C144.9+120.8+145.4+121.3+146.7+128.9ZM98.4+156.5C102.5+158.5+105.9+164.4+106.7+170.9L107.3+175.8L94+176.2C81.7+176.5+80.7+176.6+79+178.8C77.9+180.1+77.4+181.9+77.7+182.8C78+183.7+80.3+189.7+82.7+196C85.7+203.6+86.9+207.9+86.3+208.9C85.8+209.6+82.5+212+79+214.2C63.5+223.5+45.7+224.6+40.5+216.6C38.2+213.1+38.9+202.5+41.9+194.7C48.1+178.7+64.6+161.3+78+156.7C83.9+154.6+94.3+154.6+98.4+156.5ZM102.4+190.2C100.1+194.7+97+199+96.1+199C95.4+199+91+189.3+91+187.7C91+187.3+93.9+187+97.5+187L104.1+187L102.4+190.2Z" opacity="1" fill="#000000"/>
<path d="M126.4+82.5C123.5+87+125.9+90.1+133.3+91.4C142+93+145.8+84.1+137.7+81.1C132.7+79.2+128.2+79.7+126.4+82.5Z" opacity="1" fill="#000000"/>
<path d="M394.3+311.7L380+312.1L380+318L380+323.9L389.8+324.2L399.5+324.5L399.8+354.7L400+385L407.5+385L415+385L415+354.5L415+324L425+324L435+324L435+317.5L435+311L421.8+311.2C414.5+311.3+402.1+311.6+394.3+311.7Z" opacity="1" fill="#000000"/>
<path d="M-114.3+313.1C-124.2+315.4-133.1+322.7-137.4+331.9C-139.2+335.9-139.5+338.3-139.5+350C-139.5+362.4-139.3+363.9-136.9+369C-133.4+376.5-129.7+380.6-123.6+383.8C-118.8+386.3-117.7+386.5-105+386.5C-94.9+386.5-90.1+386.1-85.7+384.7L-80+382.9L-80.2+364.2L-80.5+345.5L-94.5+345.5L-108.5+345.5L-108.8+351.7L-109.1+358L-102+358L-95+358L-95+365.9L-95+373.7L-98.1+374.4C-115.6+377.9-126.4+366.7-124.7+347C-123.8+336.8-120.2+330.8-112.5+326.7C-107.6+324.2-96.8+324-90.1+326.4C-87.7+327.3-85.6+327.9-85.4+327.8C-84.4+326.8-81.1+316.7-81.5+316C-83.3+313-105.6+311.1-114.3+313.1Z" opacity="1" fill="#000000"/>
<path d="M-17.2+338.2C-17.5+367.3-17.9+369.4-24.1+372.6C-28+374.6-36.9+374.6-40.8+372.6C-45.5+370.2-47+365.7-47+353.8C-47+348-47.3+336.5-47.7+328.2L-48.3+313L-55.7+313L-63+313L-62.4+339.7C-62.1+354.5-61.4+368.1-60.9+370.1C-59.7+374.9-53.9+381.4-48.2+384.2C-44.1+386.2-42+386.5-32.5+386.5C-22.5+386.5-21+386.2-16.4+383.8C-13.6+382.3-9.9+379.6-8.3+377.6C-2.9+371.5-2.5+369.1-2.5+339.5L-2.5+312.5L-9.7+312.2L-16.9+311.9L-17.2+338.2Z" opacity="1" fill="#000000"/>
<path d="M32+312.4C32+312.6+26.4+328.9+19.5+348.7C12.6+368.4+7+384.8+7+385.2C7+385.7+10.6+386+14.9+386L22.8+386L24.9+378.7C28.1+367.7+26.8+368.5+42.1+368.5L55.5+368.5L58.3+377.2L61.1+386L69.1+386C77+386+77.1+386+76.4+383.7C76+382.5+70.2+366+63.4+347L51.2+312.5L41.6+312.2C36.3+312.1+32+312.1+32+312.4ZM47.1+340.1C49.6+348.2+51.5+355.2+51.2+355.5C50.3+356.3+33.2+356.1+32.6+355.2C32+354.1+41.2+323.8+41.9+324.6C42.2+324.9+44.6+331.9+47.1+340.1Z" opacity="1" fill="#000000"/>
<path d="M87+349L87+386L94.5+386L101.9+386L102.2+371.7L102.5+357.5L106.9+357.5L111.4+357.5L120.3+371.7L129.1+386L137.5+386L145.8+386L135.4+370.6C129.7+362.1+125+354.7+125.1+354.3C125.1+353.9+127+352.1+129.2+350.5C134.9+346.3+137.5+341+137.5+333.5C137.3+317.4+128.3+312+101.3+312L87+312L87+349ZM117.4+326.4C123.6+329+124.3+338.2+118.7+342.4C116.7+343.8+114.4+344.4+109.3+344.4L102.5+344.5L102.2+334.7L101.9+325L108+325C111.3+325+115.6+325.6+117.4+326.4Z" opacity="1" fill="#000000"/>
<path d="M156+349L156+386.3L171.8+385.7C193.3+385+201.5+382.3+208.9+373.3C214.3+366.8+216.3+359.9+216.3+348.5C216.3+335.9+214+329.2+207.1+322.1C199.4+314.2+194.1+312.7+173.3+312.2L156+311.8L156+349ZM191.1+327.3C197.9+330.9+200.5+336.9+200.5+349C200.5+356.8+200.1+359.2+198.4+362.5C194.3+370.1+188.9+372.9+177.8+373L171+373L171+349L171+325L178.8+325C185.1+325+187.6+325.5+191.1+327.3Z" opacity="1" fill="#000000"/>
<path d="M247+312.4C247+312.6+241.4+328.9+234.5+348.7C227.6+368.4+222+384.8+222+385.2C222+385.7+225.6+386+229.9+386L237.8+386L240+378.7C241.1+374.8+242.3+370.7+242.6+369.7C243.1+368.2+244.7+368+257+368L270.8+368L273.7+376.7L276.5+385.5L284.3+385.8C288.5+386+292+385.7+292+385.3C292+384.9+286.3+368.2+279.3+348.3L266.5+312L256.8+312C251.4+312+247+312.2+247+312.4ZM261.7+337.9C264.1+345.5+266.2+352.5+266.6+353.4C267.1+354.8+266.1+355+257+355C249+355+246.9+354.7+247.3+353.7C247.6+353+249.7+346+252+338.2C254.4+330.4+256.6+324+256.9+324C257.3+324+259.4+330.2+261.7+337.9Z" opacity="1" fill="#000000"/>
<path d="M302.5+348.7C302.9+369+303.3+385.5+303.4+385.6C303.4+385.7+306.4+385.5+309.9+385.2L316.3+384.7L315.8+357.3C315.5+338.6+315.6+330.2+316.3+330.9C316.9+331.5+324.2+343.8+332.6+358.2L347.8+384.5L357.9+384.8L368+385.1L368+348.5L368+312L360.9+312L353.8+312L354.1+339C354.3+353.9+354.2+366+353.9+366C353.6+366+346.2+353.8+337.6+339L321.8+312L311.8+312L301.8+312L302.5+348.7Z" opacity="1" fill="#000000"/>
<path d="M-4.4+402.7C-4.7+403-5+404.5-5+405.9C-5+407.3-5.5+409.2-6+410C-6.7+411.2-7.3+410.6-8.6+407.2C-9.5+404.9-10.7+403-11.2+403C-12.8+403-11.9+406.9-9+412.5C-5.4+419.3-5.4+419.4-8.1+422.1C-9.5+423.5-9.9+424.5-9.2+425.2C-8.5+425.9-7.5+425.5-6.2+424.2C-4.7+422.7-4+420.3-3.6+415.3C-3.2+411.6-2.7+407.3-2.5+405.8C-2.1+403.1-3.1+401.4-4.4+402.7Z" opacity="1" fill="#000000"/>
<path d="M106+405.5C106+408+106.4+409+107.3+408.7C107.9+408.5+108.5+407.1+108.5+405.5C108.5+403.9+107.9+402.5+107.3+402.2C106.4+402+106+403+106+405.5Z" opacity="1" fill="#000000"/>
<path d="M194.7+402.7C194.3+403+194+404.8+194+406.6C194+411.4+192.4+411.6+190.6+407C189.1+403.1+187+401.6+187+404.4C187+405.1+188.3+408.4+190+411.6C193.6+418.7+193.6+419.3+190.8+421.9C188.8+423.8+188.8+424+190.5+424.6C193+425.6+194.7+422.9+195.4+416.9C195.7+414.2+196.3+409.7+196.6+407C197.1+402.4+196.5+400.9+194.7+402.7Z" opacity="1" fill="#000000"/>
<path d="M267.2+405.8C264.8+410.2+261.6+422.6+262.5+424.1C263.5+425.6+265+424.1+265+421.7C265+418.9+267.8+414.8+269.1+415.5C269.6+415.9+270+417.9+270+420.1C270+422.9+270.4+424+271.3+423.7C272.2+423.4+272.4+420.7+272.1+413.4C271.7+400.3+270.9+399.2+267.2+405.8ZM270+409.9C270+410.5+269.6+411.2+269+411.5C268.5+411.8+268+411.4+268+410.6C268+409.7+268.5+409+269+409C269.6+409+270+409.4+270+409.9Z" opacity="1" fill="#000000"/>
<path d="M283.2+403.2C281.6+404.8+281.5+421+283.1+421C283.7+421+284.4+420.1+284.7+419C285.2+417.2+285.8+417.5+291.1+421.7C294.4+424.2+297.3+426.1+297.5+425.8C298.6+424.7+296.7+422.1+292.5+419.1C290.1+417.4+287.8+415.5+287.5+414.9C287.1+414.4+288.2+412.7+289.9+411.1C293.4+407.9+293.8+405.9+291.4+403.6C289.6+401.7+284.9+401.5+283.2+403.2ZM290+406.3C290+407.1+289.1+408.5+288+409.5C285.5+411.7+283.5+410.3+284.5+407.1C285.2+404.7+290+404.1+290+406.3Z" opacity="1" fill="#000000"/>
<path d="M308+402.9C308+403.4+309.4+406.2+311.2+409C314.3+414+314.3+414.1+312.7+417.6C310.3+422.5+309+421+309+413.4C309+408.1+308.7+407+307.4+407C305.9+407+305.8+408+306.3+415.2C306.7+419.7+307.4+423.8+307.9+424.3C308.4+424.8+310.2+423.8+312.4+422C317.1+417.8+317.3+413.4+313+406.7C310.3+402.4+308+400.7+308+402.9Z" opacity="1" fill="#000000"/>
<path d="M343.8+404.7C342.9+406.3+341.5+410+340.7+413C338+422.8+337.8+424+339.4+424C340.1+424+341+422.6+341.4+420.8C342.7+414.3+345.7+413.1+346.2+419C346.7+426.1+348.5+423.3+348.6+415.2C348.6+405.7+348.1+402+346.6+402C346+402+344.7+403.2+343.8+404.7ZM345.1+411.3C344.3+412.1+344+412+344+410.9C344+408.9+345.3+407.5+345.8+409C346.1+409.7+345.7+410.7+345.1+411.3Z" opacity="1" fill="#000000"/>
<path d="M-127.3+403.6C-128+404.3-125.5+411.6-123.5+414.7C-121.6+417.6-121.6+421.9-123.5+422.6C-125.6+423.5-125.4+426.2-123.3+425.8C-120.5+425.3-119+420.8-118.3+411.5C-117.6+402.1-119+399.9-120.6+407.7L-121.6+412.5L-123.8+407.7C-126+402.9-126.2+402.6-127.3+403.6Z" opacity="1" fill="#000000"/>
<path d="M-68.8+404.2C-70.3+405.7-70.5+422-69+422C-68.4+422-67.6+421.1-67.2+420C-66.5+418.2-66+418.4-60.8+422.5C-54.4+427.5-54+427.7-54+425.5C-54+424.7-56.5+422.2-59.5+419.9C-62.5+417.6-65+415.4-65+415C-65+414.6-63.9+413.5-62.5+412.6C-59.5+410.7-58.3+406.6-60+404.5C-61.5+402.7-67.1+402.5-68.8+404.2ZM-63.6+405.6C-61.6+406.4-61.6+407.9-63.7+410.2C-66+412.8-67+412.4-67+409.2C-67+405.3-66.3+404.6-63.6+405.6Z" opacity="1" fill="#000000"/>
<path d="M65.6+405.2C63.2+408.9+62.9+425.5+65.3+424.7C66.1+424.4+66.4+422.5+66.2+418.2C65.8+411.3+66.7+406.9+68.1+409.1C68.6+409.9+69+412.6+69+415.2C69+421.2+70.6+422.2+72.7+417.3C74.4+413.2+74.5+413.3+75.5+420.2C75.8+422.9+76.6+425+77.2+425C77.9+425+78.1+422.5+77.6+417.2C76.4+404.5+75.5+402.5+73.1+407.7L71.8+410.5L70.6+407.1C69.2+402.8+67.6+402.2+65.6+405.2Z" opacity="1" fill="#000000"/>
<path d="M136.3+404.7C133+405.7+131+406.8+131+407.7C131+408.8+131.7+409+133.5+408.6C135.8+408+136+408.2+136+411.8C136+417.8+137.2+425+138.1+425C138.6+425+139+420.9+139+416C139+407.2+139.1+406.9+141.6+406C143+405.4+143.8+404.6+143.5+404C142.8+402.8+142.8+402.8+136.3+404.7Z" opacity="1" fill="#000000"/>
<path d="M173.6+403.9C173.2+404.5+173.6+407.5+174.5+410.6C176.4+417.1+175.9+418.6+173.5+413.8C171.2+409.5+169+407+167.3+407C166.2+407+166+408.8+166.2+415.5C166.5+425.2+168.2+426.9+169+418.3L169.5+412.5L172.8+418.1C178.8+428.6+181.5+426.4+178+413.7C175.4+404.1+174.6+402.3+173.6+403.9Z" opacity="1" fill="#000000"/>
<path d="M223.7+404.7C221.2+407.5+219+413.5+219+417.4C219+421.9+222.6+424.8+226+423C227.7+422.1+228.1+421.1+227.8+418.2C227.6+415.6+227.9+414.4+229+414.2C230.2+414+230.5+415+230.5+419C230.5+426.3+232.4+425.1+232.8+417.6C233.1+410.3+231.9+409+226.9+411.5C224.2+412.9+224+413.4+224.6+417C225.1+420.2+224.9+421+223.7+421C221.3+421+221+418.5+222.5+413.2C223.9+408.7+226.4+405.1+227.9+405.7C228.2+405.9+228.5+405.4+228.5+404.8C228.5+402.8+225.5+402.8+223.7+404.7Z" opacity="1" fill="#000000"/>
<path d="M365+403.5C365+403.9+365.7+406.7+366.6+409.7C367.5+412.7+368+415.4+367.7+415.6C367.5+415.9+366.1+414.1+364.6+411.7C361.9+407+359.3+405.2+358.4+407.4C357.4+409.9+358.5+423.3+359.7+423.7C360.5+424+361+422.2+361.2+417.9L361.5+411.6L365+417.5C368.9+424.2+372+425.9+371.9+421.3C371.8+417+367.7+403.7+366.3+403.2C365.6+403+365+403.1+365+403.5Z" opacity="1" fill="#000000"/>
<path d="M-28.5+406.5C-32.2+410.1-31.8+413.6-27.5+416.1C-25.6+417.3-24+418.5-24+418.9C-24+419.9-27.1+422.6-29+423.3C-30.2+423.7-30.1+423.9-28.6+424.5C-26.3+425.5-23.9+424.1-22.3+421C-21+418.3-22.1+415.3-24.8+414.3C-28.2+413.1-29+411.9-27.9+409.9C-26.6+407.4-25+407.5-25.7+410C-26.5+412.9-24.2+412.5-22.8+409.5C-22+407.6-22+406.7-23+405.5C-24.7+403.4-25.7+403.6-28.5+406.5Z" opacity="1" fill="#000000"/>
<path d="M9.5+406.5C5.8+410.1+6.2+413.6+10.5+416.1C12.4+417.3+14+418.6+14+419.1C14+419.6+12.6+420.9+10.8+422C8+423.7+7.8+424+9.4+424.6C11.7+425.5+14.1+424.1+15.7+421C17+418.3+15.9+415.3+13.2+414.3C9.8+413.1+9+411.9+10.1+409.9C11.4+407.4+13+407.5+12.3+410C11.5+412.9+13.8+412.5+15.2+409.5C16+407.6+16+406.7+15+405.5C13.3+403.4+12.3+403.6+9.5+406.5Z" opacity="1" fill="#000000"/>
<path d="M29.1+405.4C24.8+406.9+23.4+409.6+27.4+408.6C29.9+408+30+408.1+30+412.7C30+419.1+31.1+425+32.1+425C32.6+425+33+420.9+33+416C33+407.3+33.1+406.9+35.5+406C36.9+405.5+38+404.8+38+404.5C38+403.6+32.6+404.1+29.1+405.4Z" opacity="1" fill="#000000"/>
<path d="M48.7+405.1C46+406.7+43+413.8+43+418.8C43+422.3+43.4+423.2+45.4+424.1C48+425.3+53.1+424.2+53.8+422.2C54+421.5+52.7+421.2+49.9+421.3C44.4+421.6+43.2+418.8+47.9+417.2C49.6+416.6+51+415.4+51+414.5C51+413.3+50.6+413.1+49.1+414C48+414.5+46.9+414.6+46.6+414.2C45.7+412.7+48.5+408.5+51.3+407.2C52.8+406.5+54+405.5+54+404.9C54+403.7+51+403.8+48.7+405.1Z" opacity="1" fill="#000000"/>
<path d="M89.1+406.4C86+409.7+86.6+413.8+90.5+416C94.2+418.1+94.3+420.1+90.7+421.8C87.8+423.2+87.9+425+90.9+425C94.1+425+97.9+418.9+96.2+416.4C95.8+415.8+94+414.5+92.2+413.6C89.4+412.2+89.1+411.6+90+410C91.4+407.4+93+407.4+92.3+410C91.6+412.6+93.6+412.6+95+410C96.4+407.3+95.4+404+93.1+404C92.1+404+90.3+405.1+89.1+406.4Z" opacity="1" fill="#000000"/>
<path d="M153.4+413.7C153.8+419.1+154.4+423.8+154.7+424.3C156+426.4+156.5+422.8+156.2+413.7C155.9+405.7+155.6+404+154.3+404C152.9+404+152.8+405.3+153.4+413.7Z" opacity="1" fill="#000000"/>
<path d="M326+411.7C326+420.1+326.7+424+328.1+424C329.1+424+329.3+408.1+328.4+405.6C327+401.9+326+404.5+326+411.7Z" opacity="1" fill="#000000"/>
<path d="M-108.1+409.2C-111.1+416.2-109+425-104.4+425C-100+425-97.6+416.2-100.1+409.1C-101+406.6-101.8+406-104+406C-106.2+406-107+406.7-108.1+409.2ZM-102+414.7C-102+417.1-102.5+420.1-103.1+421.2C-104.2+423.3-104.3+423.3-105.6+421.5C-107.2+419.3-107.4+414.2-106+410.5C-104.4+406.4-102+409-102+414.7Z" opacity="1" fill="#000000"/>
<path d="M242.7+409.7C241.8+414.9+242.9+420.5+245.2+422.9C247.5+425.5+248.2+425.5+250.4+423.1C252.5+420.8+253.5+414.5+252.6+409.6C251.5+403.7+250+405.5+250+412.7C250+424.9+245.8+425.4+245.4+413.3C245.1+405.8+243.6+403.8+242.7+409.7Z" opacity="1" fill="#000000"/>
<path d="M-89.6+410.5C-90.3+414.2-89.5+420.3-87.8+423.3C-87.2+424.5-86+425-84.2+424.8C-82+424.6-81.2+423.7-80.1+420.2C-78.7+415.7-79.3+407-81.1+407C-81.6+407-82+409.8-82+413.3C-82+417.2-82.5+420.4-83.4+421.6C-84.8+423.4-84.9+423.4-85.9+420.7C-86.5+419.1-87+415.4-87+412.4C-87+406.3-88.6+405.2-89.6+410.5Z" opacity="1" fill="#000000"/>
</g>
</g>
</svg>
