<?xml version="1.0" encoding="UTF-8"?>
<!DOCTYPE svg PUBLIC "-//W3C//DTD SVG 1.1//EN"
  "http://www.w3.org/Graphics/SVG/1.1/DTD/svg11.dtd">
<!-- Created with Inkpad (http://www.taptrix.com/) --><svg xmlns:inkpad="http://taptrix.com/inkpad/svg_extensions" height="162pt" xmlns:xlink="http://www.w3.org/1999/xlink" xmlns="http://www.w3.org/2000/svg" width="650pt" version="1.1" viewBox="0,0,650,162">
<defs/>
<g id="Untitled" inkpad:layerName="Untitled">
<g opacity="1">
<path d="M57+27.1C44.4+29.2+33.4+37.3+28.4+48.3C25.7+54+25.5+55.4+25.5+66C25.5+76.4+25.8+78.1+28.2+83.2C33.3+94.2+43.3+102.3+54.9+105C65.7+107.5+83.1+105.1+91.8+99.8L95+97.8L95+81.4L95+65L81+65L67+65L67+70.4C67+76.7+67.9+77.7+74+78.2L78.5+78.5L78.8+84.3C79.1+89.7+79+90.1+76.3+91.1C74.8+91.7+70.4+92.3+66.5+92.4C60.5+92.5+58.8+92.1+54.8+89.7C46.8+85+43+77.4+43+66.1C43.1+58.5+44.6+53.5+48.5+48.4C54.6+40.4+67.7+38.6+79.6+44C83.8+45.9+86.8+46.7+87.7+46.2C90.3+44.7+95+36.7+94+35.5C91.9+33+82.7+28.8+76.3+27.5C68.7+25.9+65.1+25.8+57+27.1Z" opacity="1" fill="#000000"/>
<path d="M206.4+27.2C206+27.8+199.1+45.4+191+66.4L176.4+104.5L184.4+104.8C194+105.1+194.5+104.8+198+94.7L200.5+87.5L215.7+87.2L230.8+86.9L233.5+95C236.7+104.5+237.4+105+248.2+105C253.4+105+255.1+104.7+254.7+103.7C254.4+103.1+247.8+86.1+240+66C232.2+45.9+225.4+28.7+224.9+27.7C224.1+26.3+222.5+26+215.5+26C210.3+26+206.9+26.4+206.4+27.2ZM221.4+59.3C223.9+66.9+226+73.5+226+74C226+74.6+221.6+75+215.5+75C209.7+75+205+74.6+205+74.2C205+73.5+212.8+49.6+214.5+45.1C215.4+42.7+216.5+44.9+221.4+59.3Z" opacity="1" fill="#000000"/>
<path d="M262+65.5L262+105L271+105L280+105L280+90.5L280+76L283.9+76C286.1+76+288.5+76.7+289.4+77.5C290.2+78.3+293.9+84.4+297.7+91C302.4+99.3+305.3+103.3+307.1+104C308.5+104.6+313.3+105+317.8+104.8L325.9+104.5L317.4+90.5C312.7+82.8+307.6+75.5+306.2+74.2C303.9+72.3+303.7+71.8+305+71C305.8+70.5+306.8+70+307.2+70C308.8+70+314.3+64.4+316.1+60.8C320.4+52.3+319.5+41.9+313.8+35.4C307.4+28.1+299.1+26+276.3+26L262+26L262+65.5ZM296.1+41.6C299+43.1+302+48.1+302+51.6C302+54.6+299+59.6+296.1+61.3C294.3+62.3+290.6+63.1+286.8+63.3L280.5+63.5L280.2+51.7L279.9+40L286.5+40C290.5+40+294.3+40.6+296.1+41.6Z" opacity="1" fill="#000000"/>
<path d="M334+65.5L334+105L350.3+105C359.2+105+369.1+104.6+372.3+104C385.3+101.9+395.7+94.4+401.3+83.1C404.3+76.9+404.5+75.9+404.5+65.5C404.5+55.7+404.2+53.9+401.8+48.8C396.5+37.5+385.8+29.4+373.1+27C370.2+26.5+360.1+26+350.9+26L334+26L334+65.5ZM376.8+43.2C379+44.7+382.2+48.1+383.7+50.7C386.3+55.1+386.5+56.3+386.5+65.5C386.5+74.7+386.3+75.9+383.7+80.3C382.2+82.9+379+86.3+376.8+87.8C373.1+90.2+371.6+90.5+362.4+90.8L352+91.2L352+65.5L352+39.8L362.3+40.2C371.6+40.5+373.1+40.8+376.8+43.2Z" opacity="1" fill="#000000"/>
<path d="M105.2+54.2C105.6+78.3+105.8+82.1+107.6+86.4C110.3+93.2+116.1+99.4+122.8+102.7C127.9+105.2+129.6+105.5+138.5+105.5C147.8+105.5+149+105.3+155.2+102.2C162.9+98.4+167.2+93.8+170+86.2C171.8+81.4+172+78.4+172+54L172+27L163.5+27L155+27L155+51.9C155+67.8+154.6+77.9+153.9+80.1C151.6+86.9+145.9+91+138.8+91C132.8+91+128+88.2+125.3+83C123.1+78.8+123+77.8+123+52.8L123+27L113.9+27L104.8+27L105.2+54.2Z" opacity="1" fill="#000000"/>
<path d="M420.7+64.3C412.6+85.4+406+103.2+406+103.8C406+104.6+408.5+105+413.5+105C422.7+105+423.9+104+427.1+94.1L429.4+87L444.9+87.2L460.3+87.5L462.7+94.5C464+98.3+465.7+102.1+466.4+102.9C468.1+104.6+482.4+105.7+483.3+104.3C483.7+103.7+477.1+85.9+468.8+64.7L453.7+26L444.6+26L435.5+26L420.7+64.3ZM450.4+58.5C452.9+66.2+455+73.1+455+73.8C455+74.7+452.2+75+444.5+75C438.7+75+434+74.7+434+74.3C434+71.8+444.4+43+445+43.7C445.4+44.1+447.8+50.8+450.4+58.5Z" opacity="1" fill="#4294F8"/>
<path d="M491+65L491+104L499+104L507+104L507+80C507+66.8+507.3+56+507.8+56C508.2+56.1+516.2+65.8+525.5+77.6C548.3+106.5+545.6+104+553.5+104L560+104L560+65L560+26L552+26L544+26L543.8+50.6L543.5+75.3L527+54.4C503+24.1+505+26+497.4+26L491+26L491+65Z" opacity="1" fill="#4294F8"/>
<path d="M568+33L568+40L579+40L590+40L590+72L590+104L599+104L608+104L608+72L608+40L615.9+40C620.2+40+625.2+39.7+626.9+39.4C630+38.8+630+38.7+630+32.4L630+26L599+26L568+26L568+33Z" opacity="1" fill="#4294F8"/>
</g>
</g>
</svg>
