<?xml version="1.0" encoding="UTF-8"?>
<!DOCTYPE svg PUBLIC "-//W3C//DTD SVG 1.1//EN"
  "http://www.w3.org/Graphics/SVG/1.1/DTD/svg11.dtd">
<!-- Created with Inkpad (http://www.taptrix.com/) --><svg xmlns:inkpad="http://taptrix.com/inkpad/svg_extensions" height="162pt" xmlns:xlink="http://www.w3.org/1999/xlink" xmlns="http://www.w3.org/2000/svg" width="650pt" version="1.1" viewBox="0,0,650,162">
<defs/>
<g id="Untitled" inkpad:layerName="Untitled">
<g opacity="1">
<path d="M299.8+122.1C297.4+123.4+297.5+127.7+299.9+129C301+129.5+304.2+130+307+130C310.7+130+312+130.4+311.8+131.2C311.5+132+308.9+132.6+304.7+132.8C295.4+133.2+295.9+136+305.3+136C311.3+136+313.8+135.1+314.6+132.8C315.6+129.7+312.7+127.7+306.6+127.2C302.7+126.9+301+126.3+301+125.4C301+124.3+302.8+124+308.3+124C314.8+123.9+315.3+123.8+313.6+122.5C311.3+120.8+302.4+120.5+299.8+122.1Z" opacity="1" fill="#000000"/>
<path d="M495.7+122.8C493.7+125.2+488+133.8+488+134.4C488+134.7+488.6+135+489.4+135C490.2+135+492.2+132.8+494+130C495.8+127.3+497.6+125.2+498+125.5C498.5+125.8+500.1+128+501.7+130.5C504.1+134.4+507+136.4+507+134.3C507+133.1+499.5+122+498.3+121.6C497.7+121.3+496.5+121.9+495.7+122.8Z" opacity="1" fill="#000000"/>
<path d="M508+122.5C508+123.7+509.4+124+514.5+124C520.8+124+521+124.1+521+126.5C521+128.8+520.6+129+516.8+129L512.5+129.1L515.8+132C519.3+135.3+522.6+136.1+521.6+133.4C521.3+132.6+521.7+131.2+522.5+130.4C524.7+128.2+524.4+123.3+522.1+122C521+121.5+517.4+121+514.1+121C509.3+121+508+121.3+508+122.5Z" opacity="1" fill="#000000"/>
<path d="M531.7+121.7C529.9+123.4+531.6+124+538.5+124L546+124L546+128L546+131.9L538.8+132.2C534.2+132.4+531.5+132.9+531.2+133.7C530.7+135.5+546.1+135.5+547.8+133.8C548.5+133.1+549+130.5+549+127.8C549+124.1+548.6+122.8+547.1+122C544.9+120.9+532.7+120.6+531.7+121.7Z" opacity="1" fill="#000000"/>
<path d="M556.6+121.7C556.3+122+556+125.2+556+128.7C556+133.6+556.3+135+557.5+135C558.7+135+559+133.6+559+128.6C559+122.6+558.2+120.2+556.6+121.7Z" opacity="1" fill="#000000"/>
<path d="M570+126.9C567.8+130.2+566+133.4+566+133.9C566+136.4+568.3+134.7+571.2+130C572.9+127.2+574.6+125+575+125C575.4+125+577.1+127.2+578.8+130C581.7+134.7+584+136.4+584+133.9C584+132.4+576.1+121+575+121C574.5+121+572.3+123.7+570+126.9Z" opacity="1" fill="#000000"/>
<path d="M591+128C591+133.6+591.3+135+592.5+135C593.6+135+594+133.8+594+130.5C594+128+594.3+126+594.6+126C594.9+126+597.5+128+600.3+130.5C607.4+136.7+608.2+136.5+607.8+128.2C607.5+120.8+605.7+119.1+605.2+125.7C605+128.1+604.6+130+604.3+130C604+130+601.5+128+598.9+125.5C592+119.1+591+119.4+591+128Z" opacity="1" fill="#000000"/>
<path d="M67.8+123C65.7+124.3+65.3+132.9+67.2+134.8C67.9+135.5+71.2+136+75.2+136C80.8+136+82.1+135.7+83+134.1C84.2+131.7+84.3+126+83.1+124.1C81.9+122.3+70.3+121.5+67.8+123ZM80.5+129.5L80.5+133.5L75+133.5L69.5+133.5L69.2+129.2L68.9+124.9L74.7+125.2L80.5+125.5L80.5+129.5Z" opacity="1" fill="#000000"/>
<path d="M91.4+123.3C91.1+124.1+91+127.2+91.2+130.1L91.5+135.5L99.5+135.5L107.5+135.5L107.8+130.1C108.2+122.6+106.7+120+106+127L105.5+132.5L99.8+132.8L94+133.1L94+128.1C94+123.2+92.5+120.5+91.4+123.3Z" opacity="1" fill="#000000"/>
<path d="M116+123.5C116+124.7+117.4+125+122.6+125C128.8+125+129.1+125.1+128.8+127.2C128.6+129+127.7+129.6+124.7+130L121+130.5L124.4+133.2C128.5+136.5+130.4+136.8+129.5+134.1C129.2+132.9+129.5+132+130.5+131.6C131.4+131.3+132+129.8+132+127.6C132+123.1+130+122+122.1+122C117.3+122+116+122.3+116+123.5Z" opacity="1" fill="#000000"/>
<path d="M154.1+123.9C151.8+128.1+154.1+129.7+163+130.2C169.6+130.6+168.3+132.4+160.6+133.5C152.6+134.7+152.9+136+161.1+136C168.6+136+170+135.4+170+132C170+128.8+168.6+128+163+128C158.6+128+156+127.2+156+125.9C156+125.4+159.2+125+163.1+125C168.3+125+170.1+124.7+169.8+123.7C169.5+122.9+166.8+122.4+162.2+122.2C156+122+155+122.2+154.1+123.9Z" opacity="1" fill="#000000"/>
<path d="M177+122.8C177+123.2+178.6+125.1+180.5+127C182.9+129.3+184+131.3+184+133.3C184+136.8+186.3+136.5+186.9+132.9C187+131.6+188.8+128.7+190.8+126.6C195.2+121.7+193.3+120.3+188.6+124.9L185.4+128L182.5+125C179.8+122.2+177+121+177+122.8Z" opacity="1" fill="#000000"/>
<path d="M201.7+122.7C201.3+123+201+124.6+201+126.1C201+129.3+202.1+129.8+210+130.2C217+130.6+215.3+132.5+207.7+132.8C199.3+133.2+198.9+135.3+207+135.8C215.4+136.3+217.2+135.5+216.8+131.7C216.5+128.7+216.3+128.5+211+127.7C208+127.3+204.8+126.7+204+126.4C201.2+125.4+205.2+124+211.3+124C214.9+124+216.9+123.6+216.5+123C215.8+121.9+202.7+121.6+201.7+122.7Z" opacity="1" fill="#000000"/>
<path d="M224+122.9C224+123.5+225.5+124+227.3+124.2C230.5+124.5+230.5+124.6+230.8+130.3C231.2+137.8+233.3+137.5+234+129.9C234.5+124.7+234.6+124.5+237.8+124.2C244.4+123.5+240.7+122+232.5+122C227.8+122+224+122.4+224+122.9Z" opacity="1" fill="#000000"/>
<path d="M247+123C247+123.6+250.3+124+255+124C259.7+124+263+123.6+263+123C263+122.4+259.7+122+255+122C250.3+122+247+122.4+247+123Z" opacity="1" fill="#000000"/>
<path d="M270.2+128.7C270.5+135.8+272.3+137.7+272.8+131.5C273+129.6+273.5+128+273.9+128C274.3+128+275.6+129.8+276.9+132C278.1+134.2+279.5+136+280+136C280.6+136+282.2+134.2+283.6+132C285.1+129.8+286.7+128+287.1+128C287.6+128+288+129.8+288+132C288+134.2+288.5+136+289+136C289.6+136+290+133+290+129C290+123+289.8+122+288.3+122C287.3+122+285.3+124+283.8+126.5C282.3+129+280.7+131+280.3+131C279.9+131+278.2+129+276.7+126.5C274.9+123.7+273.1+122+271.9+122C270.1+122+269.9+122.6+270.2+128.7Z" opacity="1" fill="#000000"/>
<path d="M322+124.4C322+126.1+322.5+127+323.6+127C324.6+127+325+126.3+324.8+124.8C324.3+121.6+322+121.3+322+124.4Z" opacity="1" fill="#000000"/>
<path d="M345+123C345+123.5+346.6+124+348.5+124L351.9+124L352.2+129.5C352.4+132.5+353+135+353.5+135C354.1+135+354.6+132.5+354.8+129.5L355.1+124L358.5+124C360.4+124+362+123.5+362+123C362+122.4+358.5+122+353.5+122C348.5+122+345+122.4+345+123Z" opacity="1" fill="#000000"/>
<path d="M368.2+128.7C368.6+137.3+370.4+137.2+370.8+128.5C371+123.1+370.8+122+369.5+122C368.2+122+368+123.1+368.2+128.7Z" opacity="1" fill="#000000"/>
<path d="M378.2+128.7C378.5+136.5+380.3+137.9+380.8+130.7C381+128.1+381.4+126+381.8+126C382.3+126+384.6+128+387+130.5C389.4+133+392.2+135+393.2+135C394.7+135+395+134.1+395+128.5C395+123.4+394.7+122+393.5+122C392.4+122+392+123.2+392+126.6L392+131.2L386.9+126.6C384.1+124.1+380.9+122+379.8+122C378.1+122+377.9+122.6+378.2+128.7Z" opacity="1" fill="#000000"/>
<path d="M402.9+123.7C403.4+124.7+405+126.6+406.4+127.9C407.8+129.3+409+131.4+409+132.7C409+134.1+409.6+135+410.5+135C411.5+135+412+134+412+132.3C412+130.5+413.3+128.3+415.7+125.8C418.7+122.7+419.1+122+417.5+122C416.5+122+414.3+123.2+412.8+124.7L410+127.4L407.2+124.7C403.9+121.6+401.4+121+402.9+123.7Z" opacity="1" fill="#000000"/>
<path d="M439.4+125.4C439.1+127.3+439.2+130.2+439.7+131.7C440.6+134.4+441+134.5+448+134.8C455.8+135.1+457+134.5+457+130.2C457+128.2+456.5+128+452.4+128C447.4+128+446.5+130.2+451.3+130.8C456.6+131.4+454+133.1+448.3+132.8L442.5+132.5L442.5+128.5L442.5+124.5L449.3+124.2C458.7+123.8+457.7+122+448+122L440.1+122L439.4+125.4Z" opacity="1" fill="#000000"/>
<path d="M464+126.9C464+134.8+464.2+135+472.6+135C481.1+135+482+134.2+482+126.6C482+123.2+481.6+122+480.5+122C479.4+122+479+123.2+479+127C479+131.4+478.7+132+476.6+132.6C475.3+132.9+472.8+133+470.9+132.8C467.6+132.5+467.5+132.4+467.2+127.2C467+123.5+466.5+122+465.4+122C464.4+122+464+123.3+464+126.9Z" opacity="1" fill="#000000"/>
</g>
</g>
</svg>
